<svg xmlns="http://www.w3.org/2000/svg" width="150.63" height="43.467" viewBox="0 0 150.63 43.467"><g transform="translate(-0.31)"><path d="M3.93,29.467A5.075,5.075,0,0,1,7.736,24.43a28.438,28.438,0,0,1,3.812-.646c2.915-.381,5.837-.723,8.756-1.081q1.492-.182,2.985-.36c.473-.058.5-.1.436-.577-.254-2.01-.5-4.018-.751-6.031a2.4,2.4,0,0,1,2.387-2.874c2.083-.217,4.16-.5,6.239-.756l6.042-.737,6.2-.762,6.042-.74,6.2-.76,6.082-.744q3.08-.377,6.16-.757l5.454-.666,6.12-.75q2.728-.334,5.454-.671l6.2-.763q3.041-.373,6.082-.741,3.08-.377,6.16-.758l5.414-.663,6.2-.76,6.083-.743L127.65.33c.929-.113,1.857-.236,2.788-.324a2.343,2.343,0,0,1,2.342,2.177c.247,2.077.52,4.15.763,6.224.038.326.173.386.459.351,1.832-.228,3.665-.445,5.5-.671,2.866-.352,5.728-.752,8.6-1.046a5.648,5.648,0,0,1,4.9,1.592,5.834,5.834,0,0,1,1.544,3.881,5.584,5.584,0,0,1-4.625,6.043,44.464,44.464,0,0,1-4.491.66c-2.93.373-5.864.725-8.8,1.084-.406.05-.811.108-1.218.143-.287.025-.383.152-.346.436.126.965.236,1.933.354,2.9.169,1.37.363,2.739.509,4.111a2.362,2.362,0,0,1-2.364,2.715c-2.539.292-5.074.619-7.612.928-2.472.3-4.945.595-7.417.9s-4.943.618-7.414.921-4.946.594-7.417.9-4.942.619-7.413.922-4.946.594-7.417.9-4.943.616-7.414.919c-2.249.277-4.5.542-6.75.818s-4.524.564-6.786.841-4.5.542-6.75.818-4.524.564-6.786.841-4.5.543-6.75.819-4.524.563-6.787.84-4.5.549-6.749.819c-1.792.217-3.588.41-5.375.661a2.312,2.312,0,0,1-2.583-1.954c-.23-1.748-.433-3.5-.648-5.248-.079-.652-.17-1.3-.236-1.959-.032-.32-.236-.3-.454-.273q-1.433.173-2.866.35l-8.052.994c-.982.121-1.96.275-2.946.353a6.32,6.32,0,0,1-5.524-1.854A6.015,6.015,0,0,1,3.956,29.98C3.946,29.809,3.936,29.638,3.93,29.467Zm25.2,11.083c.6-.072,1.136-.136,1.673-.2l5.451-.674c2.04-.249,4.081-.491,6.12-.741s4.078-.51,6.117-.76c1.83-.225,3.662-.44,5.492-.663s3.66-.457,5.49-.682,3.662-.44,5.492-.665c2.039-.25,4.078-.508,6.117-.758,1.831-.225,3.662-.44,5.492-.664s3.66-.456,5.491-.681,3.661-.443,5.492-.667,3.687-.453,5.53-.682l5.453-.667,5.492-.677q2.746-.34,5.493-.671l6.121-.752q3.06-.377,6.123-.749l6.789-.831c1.361-.167,2.721-.336,4.083-.493.339-.039.416-.166.367-.514-.213-1.524-.388-3.052-.573-4.58q-.531-4.369-1.059-8.738c-.437-3.565-.889-7.13-1.313-10.7-.043-.366-.177-.44-.5-.4-1.137.147-2.275.284-3.412.424q-2.765.336-5.533.678l-5.414.663c-2.04.251-4.079.507-6.119.756s-4.081.494-6.122.745-4.08.507-6.12.758-4.108.5-6.162.749q-3.416.418-6.83.838L77.775,9.3l-6.789.838-6.162.756-6.752.826-6.162.757-6.084.745-6.75.824q-3.4.416-6.79.835-3.022.37-6.046.731c-.315.037-.429.163-.387.485.158,1.16.292,2.322.435,3.483q.339,2.721.67,5.442.338,2.758.67,5.522.378,3.094.762,6.188.212,1.723.422,3.448C28.84,40.393,28.875,40.617,29.129,40.549ZM6.767,29.646a2.982,2.982,0,0,0,3.388,3.27c1.8-.1,3.584-.417,5.375-.637l6.158-.756c.928-.114,1.857-.222,2.785-.34.217-.028.4-.071.361-.388q-.349-2.679-.664-5.362c-.032-.261-.128-.332-.382-.3-.875.117-1.752.217-2.628.324-3.94.479-7.879.937-11.808,1.449C7.724,27.12,6.738,28.016,6.767,29.646ZM148.847,9.831a2.64,2.64,0,0,0-.315,0q-3.3.4-6.592.8l-7.454.916c-.535.065-.552.1-.485.643q.31,2.425.594,4.855c.069.586.084.62.671.552,1.531-.183,3.06-.373,4.59-.56,2.981-.366,5.961-.737,8.943-1.1a3.105,3.105,0,0,0,2.915-2.776C151.8,11.4,151.058,9.82,148.847,9.831Z" transform="translate(-3.62 0.001)" fill="#f2efd2"/><path d="M434.46,263.846l3.1,3.96c-.827.087-1.55.175-2.275.226-.1.007-.236-.144-.325-.251-.8-.984-1.588-1.97-2.364-2.966a.561.561,0,0,0-.572-.248c-.522.071-1.045.141-1.569.189-.321.03-.385.2-.349.479.124.952.236,1.905.363,2.856.066.491.046.539-.443.609-.444.063-.89.1-1.332.17-.249.038-.333-.079-.36-.3q-.4-3.289-.8-6.577c-.165-1.358-.315-2.717-.505-4.07-.044-.323.05-.423.349-.457,1.491-.172,2.984-.333,4.471-.54a3.571,3.571,0,0,1,3.693,1.756,3.7,3.7,0,0,1-.81,4.928C434.648,263.678,434.573,263.75,434.46,263.846Zm-.508-3.027a1.845,1.845,0,0,0-1.848-2.013c-.788.058-1.57.185-2.355.263-.315.032-.384.188-.347.473.135,1,.262,2.006.376,3.012.029.262.1.375.394.335.756-.1,1.518-.171,2.273-.28A1.659,1.659,0,0,0,433.952,260.819Z" transform="translate(-393.374 -236.646)" fill="#f2efd2"/><path d="M1016.285,191.514c1.718-.2,3.367-.394,5.014-.6.3-.039.4.053.422.343.025.366.091.73.141,1.1.037.274-.065.408-.356.443q-3.513.417-7.022.858c-.365.046-.507-.094-.547-.43q-.241-2.038-.493-4.073c-.25-2.049-.493-4.1-.757-6.146-.087-.681.006-.726.559-.788,2.226-.247,4.446-.545,6.667-.828.283-.036.459.034.487.351q.05.57.135,1.135c.04.255-.056.351-.308.381-1.2.142-2.406.3-3.608.448-.445.056-.889.113-1.334.164-.21.024-.3.118-.27.34.1.743.194,1.487.277,2.231.027.236.13.315.365.284,1.332-.172,2.667-.33,4-.505.343-.045.566,0,.572.418a3.962,3.962,0,0,0,.11.82c.079.332-.066.467-.37.5l-2.787.33c-.444.054-.889.112-1.334.162-.214.024-.291.122-.262.344q.154,1.194.281,2.39C1015.9,191.514,1016.073,191.58,1016.285,191.514Z" transform="translate(-932.87 -167.089)" fill="#f2efd2"/><path d="M571.292,242.731c.1.276-.053.388-.373.425-1.347.158-2.692.343-4.04.5-.3.034-.38.154-.341.433.107.782.21,1.564.3,2.348.028.258.128.333.384.3,1.451-.184,2.9-.355,4.356-.53.158-.019.315-.032.473-.051.582-.072.6-.053.657.552a5.068,5.068,0,0,0,.1.821c.092.357-.091.447-.379.481q-1.354.158-2.708.324c-1.44.173-2.881.335-4.317.527-.359.048-.459-.066-.5-.4-.3-2.495-.614-4.987-.921-7.48-.131-1.057-.251-2.116-.386-3.173-.029-.225.052-.307.269-.332q2.944-.35,5.886-.709c.394-.047.788-.1,1.176-.151.271-.034.419.057.437.358a9.854,9.854,0,0,0,.135,1.016c.052.3-.035.473-.368.508-1.178.136-2.354.289-3.531.436-.444.056-.889.117-1.335.161-.236.024-.315.148-.289.37.093.73.187,1.462.275,2.193.029.243.135.33.394.3,1.332-.178,2.666-.338,4-.506.419-.052.508.02.552.451.013.131.035.261.05.394S571.273,242.545,571.292,242.731Z" transform="translate(-519.182 -217.963)" fill="#f2efd2"/><path d="M1136.788,179.175c.845.255,1.611.533,2.4.713a4.079,4.079,0,0,0,2.671-.21,1.06,1.06,0,0,0,.734-1.06,1,1,0,0,0-.788-1.016c-.839-.216-1.694-.373-2.542-.557-.463-.1-.931-.186-1.386-.315a2.641,2.641,0,0,1-2.148-2.97,3.236,3.236,0,0,1,2.211-2.994,6.492,6.492,0,0,1,5.334.21c.231.1.29.225.189.457-.172.4-.331.8-.483,1.211-.088.232-.2.25-.422.143a5.8,5.8,0,0,0-2.915-.566,2.132,2.132,0,0,0-1.339.524,1.1,1.1,0,0,0,.249,1.863,13.069,13.069,0,0,0,2.022.5c.721.158,1.457.244,2.169.428a2.636,2.636,0,0,1,2.052,2.127,3.01,3.01,0,0,1-.958,3.152,4.879,4.879,0,0,1-2.41,1.02,8.886,8.886,0,0,1-4.88-.595c-.368-.15-.436-.336-.28-.692C1136.475,180.088,1136.627,179.612,1136.788,179.175Z" transform="translate(-1046.242 -156.87)" fill="#f2efd2"/><path d="M887.389,209.155c.106.9.2,1.738.3,2.571.026.222.05.444.084.665.088.565.054.618-.494.691-.418.055-.837.1-1.254.158a.29.29,0,0,1-.373-.293l-.63-5.165c-.225-1.839-.443-3.68-.673-5.515-.028-.223-.046-.394.242-.425,1.595-.187,3.186-.414,4.785-.559a3.829,3.829,0,0,1,1.9,7.175,7.518,7.518,0,0,1-1.905.444C888.73,209.015,888.092,209.065,887.389,209.155Zm3.646-3.94c0-.079,0-.158,0-.236a1.754,1.754,0,0,0-1.822-1.822c-.709.07-1.409.2-2.116.266-.344.032-.415.182-.374.488.135,1,.264,2.008.378,3.014.03.256.123.338.381.3.666-.093,1.334-.164,2-.244A1.586,1.586,0,0,0,891.035,205.216Z" transform="translate(-814.66 -185.411)" fill="#f2efd2"/><path d="M683.639,229.49a5.535,5.535,0,0,1,4.212-5.529,5.012,5.012,0,0,1,4.958,1.172c.019.018.037.037.055.057.481.512.481.518-.035.976-.266.236-.536.468-.8.709-.149.136-.257.125-.394-.036a3.045,3.045,0,0,0-3.275-1.024,3.11,3.11,0,0,0-2.386,2.48,4.328,4.328,0,0,0,1.083,4.241,3.243,3.243,0,0,0,5.062-.509c.338-.565.339-.566.945-.31.3.128.6.263.91.386.214.086.288.222.18.432a4.4,4.4,0,0,1-.436.788,5.538,5.538,0,0,1-4.5,2.113,5.4,5.4,0,0,1-4.631-2.738A5.707,5.707,0,0,1,683.639,229.49Z" transform="translate(-629.774 -206.128)" fill="#f2efd2"/><path d="M829.01,224.067c.051.589.026.615-.458.665-.406.042-.813.079-1.217.142-.258.038-.4-.028-.432-.308-.118-.992-.252-1.982-.375-2.974q-.385-3.112-.767-6.224c-.059-.482-.118-.965-.181-1.448-.038-.292.062-.436.38-.455.447-.027.891-.087,1.335-.151.309-.046.417.079.452.378.2,1.672.408,3.341.612,5.011C828.582,220.528,828.8,222.356,829.01,224.067Z" transform="translate(-760.526 -196.497)" fill="#f2efd2"/><path d="M1433.858,127.288a1.116,1.116,0,0,1-1.173-1.007,1.1,1.1,0,0,1,.971-1.227q3.191-.4,6.382-.788a1.14,1.14,0,0,1,1.226.988,1.109,1.109,0,0,1-.923,1.231c-1.513.2-3.029.379-4.543.566C1435.134,127.134,1434.468,127.214,1433.858,127.288Z" transform="translate(-1319.8 -114.469)" fill="#f2efd2"/></g></svg>