<svg xmlns="http://www.w3.org/2000/svg" xmlns:xlink="http://www.w3.org/1999/xlink" width="70" height="3039" viewBox="0 0 70 3039"><defs><clipPath id="a"><rect width="70" height="3039" transform="translate(0)" fill="none"/></clipPath></defs><g transform="translate(0)" opacity="0.3" clip-path="url(#a)"><path d="M46.977,17.277A13.121,13.121,0,0,1,55.537,22.9,25.1,25.1,0,0,1,59.55,33.348a33.308,33.308,0,0,1-.134,11.518A36.189,36.189,0,0,1,53,60.8q-5.754,7.768-14.447,7.768a10.156,10.156,0,0,1-4.682-1.339,7.561,7.561,0,0,0-7.76,0,10.156,10.156,0,0,1-4.682,1.339q-8.695,0-14.447-7.768A36.189,36.189,0,0,1,.558,44.865,33.308,33.308,0,0,1,.424,33.348,25.1,25.1,0,0,1,4.436,22.9,13.121,13.121,0,0,1,13,17.277q3.21-.536,8.828.937a37.084,37.084,0,0,1,8.16,3.214,37.084,37.084,0,0,1,8.16-3.214Q43.766,16.741,46.977,17.277Zm-7.358-5.491a11.324,11.324,0,0,1-4.95,2.545,15.628,15.628,0,0,1-4.682.67l-2.006-.134a17.185,17.185,0,0,1,0-4.286,11.947,11.947,0,0,1,3.076-7.366A11.324,11.324,0,0,1,36.007.67,15.628,15.628,0,0,1,40.689,0l2.006.134.134,2.009a15.709,15.709,0,0,1-.668,4.687,11.321,11.321,0,0,1-2.542,4.955Z" transform="translate(5.013 2578)" fill="#3a2112"/><path d="M22.789,35.042a21.383,21.383,0,0,0,5.63-8.958,24.51,24.51,0,0,1,6.392-10.139,24.475,24.475,0,0,1,10.14-6.393,21.332,21.332,0,0,0,8-4.726L49.026.931A3.229,3.229,0,0,0,44.841.636,15.439,15.439,0,0,1,40.57,2.751C25.714,8.286,21.783,19.928,20.886,22.3c-3.1,8.211-9.328,9.862-10.283,10.217a29.528,29.528,0,0,0-9.486,5.246A3.175,3.175,0,0,0,.931,42.46l3.725,3.7a24.4,24.4,0,0,1,9.184-5.492A21.343,21.343,0,0,0,22.789,35.042ZM59.037,10.876l-3.724-3.7a24.413,24.413,0,0,1-9.192,5.5A21.429,21.429,0,0,0,37.169,18.3a21.282,21.282,0,0,0-5.625,8.958,24.514,24.514,0,0,1-6.4,10.138,24.443,24.443,0,0,1-10.135,6.387A21.307,21.307,0,0,0,7.02,48.506l3.925,3.9a3.229,3.229,0,0,0,4.185.294,15.415,15.415,0,0,1,4.264-2.108C34.206,45.069,38.143,33.5,39.075,31.04c3.1-8.207,9.326-9.861,10.284-10.219a29.553,29.553,0,0,0,9.49-5.251,3.172,3.172,0,0,0,.19-4.692Z" transform="translate(5.016 315.997)" fill="#3a2112"/><path d="M32.5,0C12.188,0,0,10.54,0,19.087c0,3.419,2.735,6.191,7.222,6.191V54.167a3.857,3.857,0,0,0,4.062,3.611H53.715a3.857,3.857,0,0,0,4.062-3.611V25.278c4.487,0,7.222-2.772,7.222-6.191C65,10.54,52.812,0,32.5,0Z" transform="translate(3 1075)" fill="#3a2112"/><path d="M40.816,21.412A16.985,16.985,0,0,0,20.279,25.9l7.548,7.548a2.185,2.185,0,1,1-3.09,3.09l-6.864-6.864L.357,65.59a3.1,3.1,0,0,0,0,2.694,3.074,3.074,0,0,0,4.1,1.408l18.267-8.915L16,54.05a2.171,2.171,0,0,1,0-3.09,2.2,2.2,0,0,1,3.09,0l7.794,7.794L40.83,51.944a16.986,16.986,0,0,0-.014-30.532ZM53.409,16.64C56.075,11.075,54.694,4.5,49.266,0c-6.878,5.7-7.178,14.7-1.08,20.77l1.094,1.094c6.071,6.1,15.082,5.8,20.77-1.08C65.551,15.355,58.974,13.974,53.409,16.64Z" transform="translate(-0.049 2969)" fill="#3a2112"/><path d="M34.072,96c-9.372,0-17.556,5.705-22.111,10.586l-9.1-6.88c-1.264-.956-3.15.062-2.827,1.527l2.519,11.433L.035,124.1c-.323,1.465,1.564,2.482,2.827,1.527l9.1-6.88c4.555,4.88,12.741,10.585,22.112,10.585C48.39,129.333,60,116,60,112.667S48.39,96,34.072,96Zm9.107,19.167a2.5,2.5,0,1,1,2.5-2.5A2.5,2.5,0,0,1,43.179,115.167Z" transform="translate(5.001 2125)" fill="#3a2112"/><path d="M47.757,2.243C45.5-.013,42.446-.579,40.424.6,34.672,3.949,22.724-4.585,9.07,9.07S3.949,34.672.6,40.424C-.579,42.446-.013,45.5,2.242,47.758S7.554,50.579,9.576,49.4c5.752-3.351,17.7,5.184,31.354-8.471S46.05,15.328,49.4,9.576c1.178-2.022.611-5.078-1.644-7.333ZM23.816,9.328c-5.683,1.421-13.067,8.8-14.488,14.488A1.563,1.563,0,1,1,6.3,23.059C8,16.253,16.242,8,23.058,6.3a1.562,1.562,0,0,1,.758,3.032Z" transform="translate(10 1849)" fill="#3a2112"/><path d="M38.75,30.853V20.339L32.569,17.5c-6.853,8.154-9.415,29.393-26.006,29.393a6.562,6.562,0,1,0,0,13.125c24.919,0,43.436-14.4,49.123-24.649l-4.342-4.516ZM54.112,15.81C57.881,8.8,55.92,3.122,53.745.37A.937.937,0,0,0,52.346.3L49.663,3a.945.945,0,0,0-.1,1.2c.8,1.214,2,4.113-.164,8.475A16.551,16.551,0,0,0,33.75,13.916l8.75,4.018V27.1h10.44l6.408,6.666A18.307,18.307,0,0,0,60,29.162,18.047,18.047,0,0,0,54.112,15.81Z" transform="translate(5 691.979)" fill="#3a2112"/><path d="M69.366,9.924,60.086.643a2.188,2.188,0,0,0-3.094,0L53.9,3.737a2.188,2.188,0,0,0,0,3.094L43.415,17.314a17.488,17.488,0,0,0-19.192,3.723L2.57,42.691a8.751,8.751,0,0,0,0,12.375L14.945,67.44a8.751,8.751,0,0,0,12.375,0L48.975,45.785A17.488,17.488,0,0,0,52.7,26.593L63.18,16.111a2.188,2.188,0,0,0,3.094,0l3.094-3.094a2.187,2.187,0,0,0,0-3.093ZM24.51,57.875,12.135,45.5,28.82,28.815,41.2,41.189Z" transform="translate(-0.008 1455.998)" fill="#3a2112"/></g></svg>